<?xml version='1.0' encoding='utf-8'?>
<svg xmlns="http://www.w3.org/2000/svg" id="Layer_1" data-name="Layer 1" viewBox="0 0 1024 1024"> <defs> <style> .cls-1 { fill: #c7b299; } .cls-2 { fill: #a0917d; } .cls-3 { fill: #ddd0c0; } </style> </defs> <title>ribbon_tilted_down</title> <g> <path class="cls-1" d="M897.62,554.76H667.77V447.49H897.62a3,3,0,0,1,2.5,4.65l-32.26,49,32.27,49A3,3,0,0,1,897.62,554.76Z"/> <polygon class="cls-2" points="667.77 447.49 798.49 469.24 798.49 576.51 667.77 576.51 667.77 447.49"/> <path class="cls-1" d="M126.38,554.76H356.23V447.49H126.38a3,3,0,0,0-2.5,4.65l32.26,49-32.27,49A3,3,0,0,0,126.38,554.76Z"/> <polygon class="cls-2" points="356.23 447.49 225.51 469.24 225.51 576.51 356.23 576.51 356.23 447.49"/> <rect class="cls-1" x="225.51" y="469.24" width="572.98" height="107.27"/> <path class="cls-3" d="M622.72,469.24s-164.61,3.9-219.49,3.79c-44.44-.09-177.72-3.79-177.72-3.79Z"/> <path class="cls-2" d="M798.49,469.24S805,501.83,806,512.83c1,10.44,1.07,41.93,1.07,41.93h-8.94Z"/> <path class="cls-2" d="M225.51,469.24s-6.46,32.59-7.54,43.59c-1,10.44-1.07,41.93-1.07,41.93h8.94Z"/> </g> </svg>